<svg width="195" height="45" viewBox="0 0 352 76" fill="none" xmlns="http://www.w3.org/2000/svg">
<path class="logo" d="M27.0723 0.612305C31.584 0.612305 35.6628 1.34147 39.3086 2.7998C42.9772 4.23535 46.1104 6.24056 48.708 8.81543C51.3057 11.3903 53.3109 14.4551 54.7236 18.0098C56.1364 21.5645 56.8428 25.4495 56.8428 29.665C56.8428 32.3766 56.5807 34.9971 56.0566 37.5264C55.5326 40.0557 54.7806 42.4368 53.8008 44.6699C52.821 46.903 51.6133 48.9424 50.1777 50.7881C48.765 52.6338 47.1585 54.2288 45.3584 55.5732C43.5811 56.8949 41.6214 57.9202 39.4795 58.6494C37.3604 59.3786 35.0931 59.7432 32.6777 59.7432C30.2168 59.7432 27.7331 59.5153 25.2266 59.0596C22.7201 58.6038 20.2363 58.1139 17.7754 57.5898C16.9323 58.0684 16.0664 58.4785 15.1777 58.8203C14.2891 59.1849 13.4004 59.4811 12.5117 59.709C11.623 59.9596 10.7458 60.1419 9.87988 60.2559C9.03678 60.3926 8.23926 60.4609 7.4873 60.4609C5.20866 60.4609 3.47689 60.1989 2.29199 59.6748C1.08431 59.1507 0.480469 58.3646 0.480469 57.3164C0.480469 56.7012 0.651367 56.1543 0.993164 55.6758C1.31217 55.1973 1.85905 54.7985 2.63379 54.4795C3.40853 54.1377 4.42253 53.887 5.67578 53.7275C6.90625 53.5452 8.44434 53.4541 10.29 53.4541C11.7256 53.4541 13.1383 53.5339 14.5283 53.6934C15.9183 53.8301 17.2969 54.001 18.6641 54.2061L19.5869 53.249C20.0654 52.6794 20.43 51.9616 20.6807 51.0957C20.9313 50.207 21.1136 49.0677 21.2275 47.6777C21.3415 46.2878 21.4098 44.5902 21.4326 42.585C21.4554 40.557 21.4668 38.1074 21.4668 35.2363C21.4668 32.4564 21.4782 30.0866 21.501 28.127C21.5465 26.1445 21.6377 24.4469 21.7744 23.0342C21.9111 21.6214 22.1162 20.4251 22.3896 19.4453C22.6631 18.4427 23.0277 17.5312 23.4834 16.7109C23.9619 15.8678 24.5544 15.0475 25.2607 14.25C25.9671 13.4297 26.8102 12.4954 27.79 11.4473L29.5332 12.9854C29.0319 13.4639 28.6331 14.0563 28.3369 14.7627C28.0635 15.4463 27.8584 16.2666 27.7217 17.2236C27.585 18.1579 27.4938 19.2288 27.4482 20.4365C27.4255 21.6214 27.4141 22.9658 27.4141 24.4697V43.7129C27.4141 45.194 27.2546 46.4928 26.9355 47.6094C26.6165 48.7031 26.1836 49.6829 25.6367 50.5488C25.1126 51.4147 24.5088 52.1895 23.8252 52.873C23.1416 53.5566 22.4352 54.1947 21.7061 54.7871C23.0505 55.0605 24.3607 55.334 25.6367 55.6074C26.9128 55.8809 28.1432 56.1315 29.3281 56.3594C30.5358 56.5872 31.6865 56.7809 32.7803 56.9404C33.8968 57.0771 34.9564 57.1455 35.959 57.1455C37.8275 57.1455 39.4909 56.7354 40.9492 55.915C42.4076 55.0947 43.6722 53.9782 44.7432 52.5654C45.8141 51.1299 46.7142 49.4551 47.4434 47.541C48.1953 45.6042 48.7992 43.5306 49.2549 41.3203C49.7106 39.11 50.0296 36.7972 50.2119 34.3818C50.417 31.9665 50.5195 29.5739 50.5195 27.2041C50.5195 23.4443 50.041 20.0719 49.084 17.0869C48.127 14.1019 46.7028 11.5726 44.8115 9.49902C42.943 7.40267 40.6074 5.80762 37.8047 4.71387C35.0247 3.59733 31.8005 3.03906 28.1318 3.03906C25.4886 3.03906 23.1872 3.25553 21.2275 3.68848C19.2679 4.09863 17.5817 4.6569 16.1689 5.36328C14.779 6.04688 13.6396 6.83301 12.751 7.72168C11.8623 8.61035 11.1559 9.5332 10.6318 10.4902C10.1305 11.4245 9.77734 12.3587 9.57227 13.293C9.38997 14.2272 9.29883 15.0817 9.29883 15.8564C9.29883 16.7679 9.36719 17.668 9.50391 18.5566C9.66341 19.4225 9.95964 20.1973 10.3926 20.8809C10.8483 21.5645 11.4863 22.1113 12.3066 22.5215C13.127 22.9316 14.2207 23.1367 15.5879 23.1367C16.0436 23.1367 16.4196 23.1139 16.7158 23.0684C17.012 23 17.2627 22.9202 17.4678 22.8291C17.6956 22.738 17.8893 22.6354 18.0488 22.5215L18.459 24.5381C18.1172 24.7887 17.5361 25.0052 16.7158 25.1875C15.9183 25.3698 15.0524 25.4609 14.1182 25.4609C12.751 25.4609 11.4749 25.2217 10.29 24.7432C9.12793 24.2646 8.11393 23.6152 7.24805 22.7949C6.38216 21.9518 5.70996 20.9834 5.23145 19.8896C4.73014 18.7959 4.47949 17.6338 4.47949 16.4033C4.47949 14.2842 5.03776 12.279 6.1543 10.3877C7.27083 8.47363 8.83171 6.79883 10.8369 5.36328C12.8421 3.90495 15.2233 2.75423 17.9805 1.91113C20.7604 1.04525 23.791 0.612305 27.0723 0.612305ZM6.08594 55.915C5.72135 55.915 5.33398 55.9264 4.92383 55.9492C4.51367 55.972 4.1377 56.029 3.7959 56.1201C3.43132 56.2113 3.13509 56.348 2.90723 56.5303C2.67936 56.7126 2.56543 56.9746 2.56543 57.3164C2.56543 57.7721 2.94141 58.1139 3.69336 58.3418C4.44531 58.5697 5.70996 58.6836 7.4873 58.6836C8.85449 58.6836 10.1533 58.5355 11.3838 58.2393C12.637 57.943 13.8105 57.5101 14.9043 56.9404C13.4004 56.667 11.9079 56.4277 10.4268 56.2227C8.94564 56.0176 7.4987 55.915 6.08594 55.915ZM81.1281 49.5234C81.1281 50.8223 81.2421 51.916 81.4699 52.8047C81.6978 53.6934 82.0965 54.1377 82.6662 54.1377C83.008 54.1377 83.3726 53.9782 83.76 53.6592C84.1701 53.3174 84.6372 52.7705 85.1613 52.0186C85.6854 51.2666 86.2779 50.2982 86.9387 49.1133C87.6223 47.9056 88.397 46.4359 89.2629 44.7041L90.2883 42.585L91.6896 43.6445L90.6643 45.7637C89.7072 47.6777 88.8072 49.3981 87.9641 50.9248C87.1437 52.4287 86.3576 53.7048 85.6057 54.7529C84.8537 55.8011 84.1132 56.61 83.384 57.1797C82.6776 57.7266 81.9712 58 81.2648 58C80.5129 58 79.8749 57.7949 79.3508 57.3848C78.8495 56.9746 78.4279 56.4163 78.0861 55.71C77.7443 54.9808 77.4823 54.1491 77.3 53.2148C77.1177 52.2578 76.9924 51.2438 76.924 50.1729C76.3771 51.2666 75.7733 52.292 75.1125 53.249C74.4517 54.1833 73.7567 55.0036 73.0275 55.71C72.3212 56.4163 71.5806 56.9746 70.8059 57.3848C70.0311 57.7949 69.2564 58 68.4816 58C67.3423 58 66.2372 57.7607 65.1662 57.2822C64.0952 56.8037 63.1382 56.0745 62.2951 55.0947C61.4748 54.1149 60.814 52.8844 60.3127 51.4033C59.8114 49.8994 59.5607 48.1335 59.5607 46.1055C59.5607 43.7357 59.8684 41.571 60.4836 39.6113C61.0988 37.6289 61.9305 35.9313 62.9787 34.5186C64.0269 33.083 65.2346 31.9779 66.6018 31.2031C67.9689 30.4056 69.4045 30.0068 70.9084 30.0068C71.8199 30.0068 72.663 30.2119 73.4377 30.6221C74.2124 31.0322 74.8846 31.5335 75.4543 32.126C76.0467 32.6956 76.5367 33.3109 76.924 33.9717C77.3114 34.6097 77.5734 35.1566 77.7102 35.6123L78.1203 32.2969C78.1659 31.8639 78.371 31.4993 78.7355 31.2031C79.1229 30.9069 79.5445 30.679 80.0002 30.5195C80.4559 30.3372 80.9003 30.2119 81.3332 30.1436C81.7661 30.0524 82.0738 30.0068 82.2561 30.0068C82.5295 30.0068 82.7118 30.0524 82.8029 30.1436C82.8941 30.2347 82.9396 30.417 82.9396 30.6904C82.9396 31.0322 82.8371 31.7272 82.632 32.7754C82.4497 33.8008 82.2447 35.1224 82.0168 36.7402C81.8117 38.3353 81.6066 40.2152 81.4016 42.3799C81.2193 44.5446 81.1281 46.9258 81.1281 49.5234ZM77.3684 40.5C77.3684 39.4518 77.2089 38.4264 76.8898 37.4238C76.5708 36.3984 76.1379 35.4984 75.591 34.7236C75.0441 33.9261 74.4061 33.2881 73.677 32.8096C72.9706 32.3311 72.2186 32.0918 71.4211 32.0918C70.4413 32.0918 69.5184 32.3766 68.6525 32.9463C67.8094 33.4932 67.0689 34.2793 66.4309 35.3047C65.8156 36.3073 65.3257 37.5264 64.9611 38.9619C64.5965 40.3747 64.4143 41.9355 64.4143 43.6445C64.4143 47.0625 64.9497 49.6715 66.0207 51.4717C67.0917 53.249 68.5158 54.1377 70.2932 54.1377C71.0679 54.1377 71.8654 53.8301 72.6857 53.2148C73.5288 52.5768 74.2922 51.6768 74.9758 50.5146C75.6822 49.3298 76.2518 47.8942 76.6848 46.208C77.1405 44.5218 77.3684 42.6191 77.3684 40.5ZM91.7416 30.9639C91.8327 30.736 92.0492 30.5537 92.391 30.417C92.7328 30.2803 93.0974 30.1891 93.4848 30.1436C93.8721 30.0752 94.2367 30.041 94.5785 30.041C94.9203 30.0182 95.1482 30.0068 95.2621 30.0068C95.6039 30.0068 95.8204 30.098 95.9115 30.2803C96.0255 30.4398 96.0824 30.7018 96.0824 31.0664C96.0824 31.2487 96.0255 31.6589 95.9115 32.2969C95.7976 32.9121 95.6495 33.6868 95.4672 34.6211C95.3077 35.5553 95.1254 36.6149 94.9203 37.7998C94.738 38.9847 94.5557 40.2038 94.3734 41.457C94.2139 42.7103 94.0772 43.9863 93.9633 45.2852C93.8493 46.5612 93.7924 47.7689 93.7924 48.9082C93.7924 50.8906 94.1228 52.3831 94.7836 53.3857C95.4444 54.3656 96.2077 54.8555 97.0736 54.8555C98.5775 54.8555 99.9105 53.7503 101.073 51.54C102.235 49.3298 103.442 46.0941 104.696 41.833V31.8867C104.696 31.4993 104.867 31.1917 105.208 30.9639C105.573 30.7132 105.983 30.5195 106.439 30.3828C106.895 30.2461 107.339 30.1549 107.772 30.1094C108.205 30.041 108.512 30.0068 108.695 30.0068C109.401 30.0068 109.754 30.36 109.754 31.0664C109.754 31.3171 109.732 31.7386 109.686 32.3311C109.663 32.9007 109.629 33.5843 109.583 34.3818C109.538 35.1566 109.492 36.0225 109.447 36.9795C109.424 37.9137 109.412 38.8594 109.412 39.8164V53.7275C109.823 53.2035 110.335 52.5085 110.951 51.6426C111.589 50.7767 112.238 49.8538 112.899 48.874C113.582 47.8942 114.232 46.9144 114.847 45.9346C115.485 44.9548 115.998 44.0775 116.385 43.3027L116.761 42.585L118.162 43.6445L117.787 44.3623C117.308 45.3193 116.738 46.3105 116.078 47.3359C115.417 48.3613 114.71 49.3981 113.958 50.4463C113.229 51.4717 112.466 52.4971 111.668 53.5225C110.894 54.5251 110.142 55.4821 109.412 56.3936V63.9473C109.412 66.0436 109.219 67.821 108.831 69.2793C108.467 70.7604 107.954 71.9567 107.293 72.8682C106.633 73.8024 105.858 74.4746 104.969 74.8848C104.08 75.2949 103.112 75.5 102.064 75.5C101.403 75.5 100.788 75.3975 100.218 75.1924C99.6713 74.9873 99.1928 74.6797 98.7826 74.2695C98.3725 73.8822 98.0534 73.4036 97.8256 72.834C97.5977 72.2871 97.4838 71.6605 97.4838 70.9541C97.4838 69.9287 97.6661 68.9033 98.0307 67.8779C98.418 66.8525 98.9421 65.793 99.6029 64.6992C100.287 63.6055 101.073 62.4775 101.961 61.3154C102.85 60.1761 103.807 58.9798 104.832 57.7266V47.3701C104.263 48.9196 103.648 50.3551 102.987 51.6768C102.326 52.9756 101.608 54.0921 100.833 55.0264C100.059 55.9606 99.227 56.6898 98.3383 57.2139C97.4496 57.738 96.4926 58 95.4672 58C94.738 58 93.9861 57.8861 93.2113 57.6582C92.4594 57.4076 91.753 56.9632 91.0922 56.3252C90.4542 55.6872 89.9301 54.8327 89.5199 53.7617C89.1098 52.668 88.9047 51.278 88.9047 49.5918C88.9047 47.6777 89.0186 45.7295 89.2465 43.7471C89.4743 41.7646 89.7364 39.9189 90.0326 38.21C90.3516 36.501 90.6706 35.0085 90.9896 33.7324C91.3087 32.4336 91.5593 31.5107 91.7416 30.9639ZM101.688 73.415C102.052 73.415 102.417 73.3353 102.782 73.1758C103.169 73.0391 103.511 72.7087 103.807 72.1846C104.103 71.6605 104.343 70.8857 104.525 69.8604C104.73 68.835 104.832 67.445 104.832 65.6904V60.5293C104.058 61.4863 103.34 62.4092 102.679 63.2979C102.041 64.2093 101.483 65.0866 101.004 65.9297C100.526 66.7956 100.15 67.6273 99.8764 68.4248C99.6029 69.2223 99.4662 69.9971 99.4662 70.749C99.4662 71.4554 99.6599 72.0706 100.047 72.5947C100.435 73.1416 100.982 73.415 101.688 73.415ZM136.056 46.1055C136.056 47.6549 135.817 49.1475 135.338 50.583C134.883 51.9958 134.199 53.2604 133.288 54.377C132.399 55.4707 131.282 56.348 129.938 57.0088C128.616 57.6696 127.101 58 125.392 58C124.162 58 123.057 57.8063 122.077 57.4189C121.12 57.0088 120.299 56.4733 119.616 55.8125C118.932 55.1289 118.408 54.3656 118.044 53.5225C117.679 52.6566 117.497 51.7679 117.497 50.8564C117.497 49.945 117.668 49.1019 118.009 48.3271C118.374 47.5296 118.852 46.8574 119.445 46.3105C120.06 45.7409 120.755 45.2965 121.53 44.9775C122.305 44.6585 123.125 44.499 123.991 44.499C124.538 44.499 125.107 44.5674 125.7 44.7041V45.6953C124.971 45.6953 124.253 45.8434 123.546 46.1396C122.863 46.4359 122.248 46.846 121.701 47.3701C121.177 47.8714 120.755 48.4867 120.436 49.2158C120.117 49.9222 119.958 50.6855 119.958 51.5059C119.958 53.0098 120.47 54.2174 121.496 55.1289C122.544 56.0176 123.968 56.4619 125.768 56.4619C126.68 56.4619 127.511 56.291 128.263 55.9492C129.015 55.5846 129.653 55.0947 130.177 54.4795C130.724 53.8415 131.134 53.0895 131.408 52.2236C131.704 51.3577 131.852 50.4121 131.852 49.3867C131.852 48.4069 131.658 47.4954 131.271 46.6523C130.884 45.8092 130.371 45.0117 129.733 44.2598C129.095 43.5078 128.366 42.8014 127.546 42.1406C126.748 41.4798 125.928 40.8532 125.085 40.2607C124.264 39.6455 123.455 39.0531 122.658 38.4834C121.86 37.9137 121.165 37.3441 120.573 36.7744L117.155 44.3623L115.754 43.3027L119.24 35.6807C118.397 34.8831 117.77 34.1312 117.36 33.4248C116.973 32.6956 116.779 31.8298 116.779 30.8271C116.779 30.2803 116.87 29.7676 117.052 29.2891C117.257 28.7878 117.519 28.3662 117.838 28.0244C118.18 27.6598 118.568 27.375 119.001 27.1699C119.434 26.9648 119.889 26.8623 120.368 26.8623C121.234 26.8623 121.883 27.113 122.316 27.6143C122.749 28.0928 122.965 28.6966 122.965 29.4258C122.965 29.7676 122.931 30.1322 122.863 30.5195C122.795 30.8841 122.703 31.2601 122.589 31.6475C122.498 32.012 122.396 32.3538 122.282 32.6729C122.191 32.9919 122.111 33.2653 122.043 33.4932C122.726 34.0173 123.546 34.5299 124.504 35.0312C125.461 35.5098 126.452 36.0111 127.477 36.5352C128.525 37.0592 129.562 37.6289 130.588 38.2441C131.613 38.8594 132.524 39.543 133.322 40.2949C134.142 41.0469 134.803 41.9014 135.304 42.8584C135.806 43.8154 136.056 44.8978 136.056 46.1055ZM120.436 28.4004C120.117 28.4004 119.855 28.5143 119.65 28.7422C119.468 28.9473 119.377 29.2321 119.377 29.5967C119.377 30.0068 119.479 30.4626 119.684 30.9639C119.889 31.4652 120.254 31.9551 120.778 32.4336C121.006 31.9551 121.177 31.488 121.291 31.0322C121.427 30.5765 121.496 30.1208 121.496 29.665C121.496 29.3005 121.393 29.0042 121.188 28.7764C121.006 28.5257 120.755 28.4004 120.436 28.4004ZM148.242 54.1377C149.04 54.1377 149.848 53.9326 150.669 53.5225C151.512 53.1123 152.355 52.4743 153.198 51.6084C154.064 50.7425 154.953 49.626 155.864 48.2588C156.776 46.8688 157.71 45.2168 158.667 43.3027L159.009 42.585L160.41 43.6445L160.068 44.3623C158.838 46.8005 157.607 48.8854 156.377 50.6172C155.169 52.349 153.973 53.7617 152.788 54.8555C151.626 55.9492 150.475 56.7467 149.336 57.248C148.196 57.7493 147.103 58 146.054 58C144.573 58 143.252 57.6924 142.09 57.0771C140.928 56.4619 139.948 55.6302 139.15 54.582C138.353 53.5111 137.749 52.2806 137.339 50.8906C136.906 49.4779 136.689 47.9967 136.689 46.4473C136.689 43.9863 137.031 41.7533 137.715 39.748C138.375 37.7201 139.264 35.9883 140.381 34.5527C141.52 33.1172 142.807 32.0007 144.243 31.2031C145.679 30.4056 147.171 30.0068 148.721 30.0068C150.293 30.0068 151.489 30.4056 152.309 31.2031C153.152 32.0007 153.574 33.0033 153.574 34.2109C153.574 35.373 153.244 36.4668 152.583 37.4922C151.922 38.4948 151.022 39.486 149.883 40.4658C148.766 41.4229 147.467 42.3799 145.986 43.3369C144.505 44.2712 142.944 45.2396 141.304 46.2422C141.463 47.4271 141.736 48.5094 142.124 49.4893C142.511 50.4463 143.001 51.278 143.594 51.9844C144.186 52.668 144.87 53.2035 145.644 53.5908C146.419 53.9554 147.285 54.1377 148.242 54.1377ZM149.302 35.2363C149.302 34.3249 149.051 33.6071 148.55 33.083C148.071 32.5589 147.479 32.2969 146.772 32.2969C146.18 32.2969 145.553 32.5133 144.892 32.9463C144.232 33.3564 143.628 34.0286 143.081 34.9629C142.534 35.8743 142.078 37.0479 141.714 38.4834C141.349 39.9189 141.167 41.6621 141.167 43.7129V44.499C141.942 44.0889 142.796 43.5534 143.73 42.8926C144.687 42.209 145.576 41.457 146.396 40.6367C147.217 39.8164 147.9 38.9505 148.447 38.0391C149.017 37.1048 149.302 36.1706 149.302 35.2363ZM199.65 19.2061C200.174 18.8187 200.641 18.3516 201.051 17.8047C201.484 17.2578 201.849 16.6654 202.145 16.0273C202.441 15.3893 202.669 14.7171 202.828 14.0107C202.988 13.3044 203.068 12.5866 203.068 11.8574C203.068 10.7637 202.874 9.68132 202.487 8.61035C202.122 7.5166 201.518 6.53678 200.675 5.6709C199.855 4.78223 198.784 4.06445 197.462 3.51758C196.14 2.9707 194.534 2.69727 192.643 2.69727C190.546 2.69727 188.564 3.03906 186.696 3.72266C184.827 4.40625 183.186 5.3291 181.774 6.49121C180.384 7.65332 179.279 8.99772 178.458 10.5244C177.638 12.0511 177.228 13.6462 177.228 15.3096C177.228 17.0641 177.638 18.625 178.458 19.9922C179.301 21.3366 180.395 22.5671 181.739 23.6836C183.107 24.7773 184.656 25.7913 186.388 26.7256C188.12 27.6598 189.886 28.5827 191.686 29.4941C193.486 30.4056 195.252 31.3626 196.984 32.3652C198.715 33.3451 200.253 34.4502 201.598 35.6807C202.965 36.9111 204.059 38.2897 204.879 39.8164C205.722 41.3431 206.144 43.109 206.144 45.1143C206.144 47.0283 205.688 48.8626 204.777 50.6172C203.865 52.3717 202.612 53.9326 201.017 55.2998C199.422 56.6442 197.542 57.7152 195.377 58.5127C193.235 59.333 190.922 59.7432 188.439 59.7432C185.659 59.7432 183.357 59.4355 181.534 58.8203C179.734 58.2279 178.299 57.4759 177.228 56.5645C176.18 55.653 175.45 54.6732 175.04 53.625C174.63 52.554 174.425 51.5628 174.425 50.6514C174.425 49.5348 174.596 48.5322 174.938 47.6436C175.302 46.7321 175.781 45.9232 176.373 45.2168C176.966 44.4876 177.627 43.861 178.356 43.3369C179.108 42.79 179.871 42.3343 180.646 41.9697C181.443 41.5824 182.207 41.2747 182.936 41.0469C183.688 40.7962 184.36 40.6139 184.952 40.5L185.294 42.2432C185.021 42.3343 184.519 42.5622 183.79 42.9268C183.084 43.2686 182.343 43.7812 181.569 44.4648C180.794 45.1257 180.11 45.9574 179.518 46.96C178.925 47.9626 178.629 49.1475 178.629 50.5146C178.629 51.4489 178.823 52.3604 179.21 53.249C179.62 54.1377 180.224 54.9352 181.022 55.6416C181.819 56.348 182.799 56.9176 183.961 57.3506C185.123 57.7835 186.479 58 188.029 58C189.897 58 191.526 57.8291 192.916 57.4873C194.329 57.1227 195.537 56.6556 196.539 56.0859C197.565 55.5163 198.396 54.8669 199.034 54.1377C199.695 53.3857 200.208 52.611 200.572 51.8135C200.96 51.016 201.222 50.2298 201.359 49.4551C201.518 48.6576 201.598 47.9398 201.598 47.3018C201.598 45.57 201.199 44.0547 200.402 42.7559C199.604 41.4342 198.544 40.2607 197.223 39.2354C195.924 38.1872 194.443 37.2415 192.779 36.3984C191.116 35.5326 189.407 34.6781 187.653 33.835C185.921 32.9919 184.223 32.1146 182.56 31.2031C180.896 30.2917 179.404 29.2549 178.082 28.0928C176.783 26.9307 175.735 25.609 174.938 24.1279C174.14 22.624 173.741 20.8695 173.741 18.8643C173.741 16.1755 174.3 13.7145 175.416 11.4814C176.533 9.22559 178.037 7.30013 179.928 5.70508C181.819 4.08724 184.007 2.83398 186.49 1.94531C188.997 1.05664 191.629 0.612305 194.386 0.612305C196.733 0.612305 198.738 0.885742 200.402 1.43262C202.065 1.97949 203.421 2.69727 204.469 3.58594C205.54 4.47461 206.315 5.48861 206.793 6.62793C207.294 7.76725 207.545 8.92936 207.545 10.1143C207.545 11.527 207.294 12.8145 206.793 13.9766C206.315 15.1387 205.722 16.1755 205.016 17.0869C204.332 17.9756 203.592 18.7275 202.794 19.3428C201.997 19.9352 201.29 20.3568 200.675 20.6074L199.65 19.2061ZM214.98 36.4326C215.367 35.5895 215.834 34.7806 216.381 34.0059C216.928 33.2311 217.555 32.5475 218.261 31.9551C218.968 31.3626 219.754 30.8955 220.62 30.5537C221.485 30.1891 222.431 30.0068 223.456 30.0068C224.824 30.0068 226.031 30.3372 227.079 30.998C228.128 31.6361 229.005 32.502 229.711 33.5957C230.418 34.6667 230.953 35.9199 231.318 37.3555C231.682 38.7682 231.865 40.238 231.865 41.7646C231.865 44.1117 231.625 46.2308 231.147 48.1221C230.691 49.9906 230.065 51.6312 229.267 53.0439C230.497 52.1097 231.739 50.8678 232.993 49.3184C234.269 47.7689 235.522 45.7637 236.752 43.3027L237.094 42.585L238.496 43.6445L238.154 44.3623C237.106 46.4587 235.955 48.3499 234.702 50.0361C233.448 51.7223 232.115 53.1579 230.703 54.3428C229.313 55.5049 227.854 56.4049 226.328 57.043C224.801 57.681 223.24 58 221.645 58C220.232 58 218.922 57.6924 217.714 57.0771C216.529 56.4619 215.618 55.6986 214.98 54.7871V70.9541C214.98 71.82 214.912 72.5378 214.775 73.1074C214.661 73.6999 214.456 74.167 214.16 74.5088C213.886 74.8734 213.51 75.124 213.032 75.2607C212.553 75.4202 211.972 75.5 211.288 75.5C210.764 75.5 210.4 75.4089 210.195 75.2266C209.99 75.0671 209.887 74.805 209.887 74.4404C209.887 74.2809 209.91 73.9961 209.955 73.5859C210.001 73.1758 210.047 72.5492 210.092 71.7061C210.138 70.8857 210.183 69.792 210.229 68.4248C210.274 67.0804 210.297 65.36 210.297 63.2637V44.3623C210.297 41.833 210.286 39.8164 210.263 38.3125C210.24 36.7858 210.218 35.6009 210.195 34.7578C210.172 33.8919 210.149 33.2767 210.126 32.9121C210.104 32.5475 210.092 32.2285 210.092 31.9551C210.092 31.7272 210.206 31.4993 210.434 31.2715C210.662 31.0436 210.958 30.8385 211.323 30.6562C211.687 30.474 212.075 30.3258 212.485 30.2119C212.918 30.0752 213.328 30.0068 213.715 30.0068C214.103 30.0068 214.41 30.1094 214.638 30.3145C214.866 30.5195 214.98 30.8841 214.98 31.4082V36.4326ZM221.645 33.0146C220.688 33.0146 219.799 33.3451 218.979 34.0059C218.181 34.6667 217.486 35.5212 216.894 36.5693C216.324 37.5947 215.869 38.734 215.527 39.9873C215.208 41.2406 215.048 42.4596 215.048 43.6445V47.5752C215.048 48.8057 215.208 49.9222 215.527 50.9248C215.869 51.9274 216.313 52.7819 216.86 53.4883C217.407 54.1947 218.045 54.7415 218.774 55.1289C219.526 55.4935 220.312 55.6758 221.132 55.6758C223.069 55.6758 224.527 54.6732 225.507 52.668C226.51 50.6628 227.011 47.5182 227.011 43.2344C227.011 41.776 226.909 40.4202 226.704 39.167C226.498 37.9137 226.179 36.8314 225.746 35.9199C225.314 35.0085 224.755 34.3021 224.072 33.8008C223.388 33.2767 222.579 33.0146 221.645 33.0146ZM238.137 42.9609L237.796 43.6445L237.454 44.3623L236.052 43.3027L236.394 42.585C236.964 41.4229 237.431 40.2607 237.796 39.0986C238.183 37.9137 238.49 36.8086 238.718 35.7832C238.969 34.7578 239.174 33.8577 239.334 33.083C239.493 32.3083 239.653 31.75 239.812 31.4082C239.949 31.1348 240.143 30.9183 240.393 30.7588C240.667 30.5765 240.94 30.4284 241.213 30.3145C241.51 30.2005 241.783 30.1208 242.034 30.0752C242.307 30.0296 242.501 30.0068 242.615 30.0068C243.116 30.0068 243.447 30.1094 243.606 30.3145C243.788 30.5195 243.879 30.8841 243.879 31.4082C243.879 31.6589 243.823 32.2855 243.709 33.2881C243.617 34.2679 243.504 35.5098 243.367 37.0137C243.253 38.4948 243.139 40.1696 243.025 42.0381C242.934 43.8838 242.888 45.7979 242.888 47.7803C242.888 49.2158 242.957 50.3551 243.093 51.1982C243.23 52.0186 243.401 52.6338 243.606 53.0439C243.834 53.4541 244.073 53.7161 244.324 53.8301C244.597 53.944 244.871 54.001 245.144 54.001C245.509 54.001 245.919 53.8415 246.375 53.5225C246.83 53.2035 247.366 52.6452 247.981 51.8477C248.596 51.0273 249.303 49.9336 250.1 48.5664C250.898 47.1764 251.832 45.4219 252.903 43.3027L253.279 42.585L254.68 43.6445L254.304 44.3623C253.438 46.0485 252.573 47.7119 251.707 49.3525C250.864 50.9932 249.998 52.4515 249.109 53.7275C248.243 55.0036 247.366 56.0404 246.477 56.8379C245.588 57.6126 244.7 58 243.811 58C242.877 58 242.068 57.8177 241.384 57.4531C240.724 57.0658 240.165 56.4391 239.71 55.5732C239.277 54.7074 238.946 53.568 238.718 52.1553C238.513 50.7197 238.411 48.9538 238.411 46.8574C238.411 46.265 238.411 45.6497 238.411 45.0117C238.411 44.3509 238.434 43.6673 238.479 42.9609H238.137ZM245.144 23C245.144 23.7975 244.871 24.4697 244.324 25.0166C243.8 25.5407 243.139 25.8027 242.341 25.8027C241.567 25.8027 240.906 25.5407 240.359 25.0166C239.812 24.4697 239.539 23.7975 239.539 23C239.539 22.2253 239.812 21.5645 240.359 21.0176C240.906 20.4707 241.567 20.1973 242.341 20.1973C243.139 20.1973 243.8 20.4707 244.324 21.0176C244.871 21.5645 245.144 22.2253 245.144 23ZM265.738 32.3652C265.1 32.3652 264.382 32.6501 263.585 33.2197C262.81 33.7894 262.024 34.5299 261.226 35.4414C260.429 36.3301 259.654 37.3327 258.902 38.4492C258.173 39.5658 257.535 40.6709 256.988 41.7646C256.92 43.7699 256.851 45.9574 256.783 48.3271C256.737 50.6969 256.715 53.2262 256.715 55.915C256.715 56.2568 256.555 56.5645 256.236 56.8379C255.94 57.0885 255.587 57.305 255.177 57.4873C254.766 57.6468 254.345 57.7721 253.912 57.8633C253.479 57.9544 253.126 58 252.852 58C252.511 58 252.192 57.8975 251.895 57.6924C251.599 57.4873 251.451 57.0316 251.451 56.3252C251.451 55.9834 251.485 55.5618 251.554 55.0605C251.622 54.5365 251.713 53.9782 251.827 53.3857C251.918 52.7933 252.032 52.1895 252.169 51.5742C252.283 50.9362 252.397 50.3438 252.511 49.7969V33.083C252.511 32.6273 252.522 32.2741 252.545 32.0234C252.545 31.75 252.579 31.5449 252.647 31.4082C252.784 31.0892 253.023 30.8385 253.365 30.6562C253.707 30.474 254.071 30.3372 254.459 30.2461C254.846 30.1322 255.222 30.0638 255.587 30.041C255.951 30.0182 256.236 30.0068 256.441 30.0068C256.829 30.0068 257.091 30.1094 257.227 30.3145C257.387 30.5195 257.467 30.8841 257.467 31.4082C257.467 31.3398 257.41 31.8981 257.296 33.083C257.205 34.2679 257.125 35.9655 257.056 38.1758C257.74 37.1048 258.481 36.0794 259.278 35.0996C260.076 34.1198 260.907 33.2539 261.773 32.502C262.639 31.75 263.528 31.1462 264.439 30.6904C265.373 30.2347 266.319 30.0068 267.276 30.0068C268.985 30.0068 270.238 30.5537 271.036 31.6475C271.833 32.7184 272.232 34.1768 272.232 36.0225C272.232 37.1846 272.152 38.4834 271.993 39.9189C271.856 41.3317 271.685 42.7786 271.48 44.2598C271.298 45.7181 271.127 47.1536 270.968 48.5664C270.831 49.9564 270.762 51.2324 270.762 52.3945C270.762 53.8984 271.23 54.6504 272.164 54.6504C272.46 54.6504 272.802 54.5023 273.189 54.2061C273.599 53.887 274.101 53.306 274.693 52.4629C275.308 51.6198 276.038 50.4691 276.881 49.0107C277.724 47.5296 278.726 45.627 279.888 43.3027L280.23 42.585L281.632 43.6445L281.29 44.3623C279.923 47.0967 278.704 49.3411 277.633 51.0957C276.584 52.8503 275.627 54.2402 274.762 55.2656C273.896 56.291 273.087 57.0088 272.335 57.4189C271.583 57.8063 270.831 58 270.079 58C269.6 58 269.122 57.9316 268.643 57.7949C268.165 57.6582 267.743 57.4189 267.379 57.0771C267.014 56.7354 266.718 56.2796 266.49 55.71C266.262 55.1175 266.148 54.3656 266.148 53.4541C266.148 52.0869 266.239 50.5488 266.422 48.8398C266.604 47.1309 266.809 45.4219 267.037 43.7129C267.265 42.0039 267.47 40.3975 267.652 38.8936C267.834 37.3669 267.926 36.125 267.926 35.168C267.926 34.3249 267.743 33.6527 267.379 33.1514C267.014 32.6273 266.467 32.3652 265.738 32.3652ZM308.207 43.6445L307.831 44.3623C307.056 45.9118 306.02 47.1536 304.721 48.0879C303.445 48.9993 302.055 49.5918 300.551 49.8652C300.141 51.0273 299.605 52.1097 298.944 53.1123C298.306 54.0921 297.566 54.9466 296.723 55.6758C295.902 56.4049 294.968 56.9746 293.92 57.3848C292.895 57.7949 291.778 58 290.57 58C288.816 58 287.232 57.6354 285.819 56.9062C284.429 56.1543 283.244 55.1517 282.265 53.8984C281.285 52.6224 280.533 51.1413 280.009 49.4551C279.485 47.7461 279.223 45.9232 279.223 43.9863C279.223 42.3001 279.416 40.7734 279.804 39.4062C280.191 38.0163 280.681 36.7858 281.273 35.7148C281.866 34.6211 282.527 33.6755 283.256 32.8779C283.985 32.0576 284.703 31.3854 285.409 30.8613C286.116 30.3372 286.754 29.9499 287.323 29.6992C287.916 29.4258 288.36 29.2891 288.656 29.2891L289.101 30.4854C288.166 31.1689 287.335 32.126 286.605 33.3564C285.967 34.4046 285.386 35.7946 284.862 37.5264C284.361 39.2581 284.11 41.4115 284.11 43.9863C284.11 45.5586 284.258 47.0853 284.555 48.5664C284.851 50.0475 285.284 51.3577 285.854 52.4971C286.423 53.6364 287.118 54.5479 287.938 55.2314C288.782 55.915 289.727 56.2568 290.775 56.2568C292.211 56.2568 293.396 55.6872 294.33 54.5479C295.287 53.3857 295.993 51.8021 296.449 49.7969C295.264 49.5462 294.136 49.0791 293.065 48.3955C291.994 47.7119 291.049 46.8688 290.229 45.8662C289.408 44.8408 288.747 43.6673 288.246 42.3457C287.768 41.0241 287.528 39.5885 287.528 38.0391C287.528 36.763 287.688 35.6465 288.007 34.6895C288.349 33.7096 288.793 32.9007 289.34 32.2627C289.887 31.6019 290.513 31.112 291.22 30.793C291.949 30.4512 292.712 30.2803 293.51 30.2803C294.444 30.2803 295.401 30.5537 296.381 31.1006C297.361 31.6247 298.249 32.4222 299.047 33.4932C299.844 34.5413 300.494 35.863 300.995 37.458C301.496 39.0531 301.747 40.9102 301.747 43.0293C301.747 43.8268 301.701 44.613 301.61 45.3877C301.519 46.1624 301.382 46.9144 301.2 47.6436C302.294 47.3245 303.285 46.8118 304.174 46.1055C305.085 45.3991 305.837 44.4648 306.43 43.3027L306.806 42.585L308.207 43.6445ZM289.784 37.7656C289.784 39.11 289.966 40.3519 290.331 41.4912C290.718 42.6077 291.231 43.599 291.869 44.4648C292.507 45.3079 293.248 46.0143 294.091 46.584C294.934 47.1536 295.834 47.5524 296.791 47.7803C296.905 47.1423 296.973 46.4814 296.996 45.7979C297.042 45.0915 297.064 44.3737 297.064 43.6445C297.064 42.0267 296.939 40.5684 296.688 39.2695C296.438 37.9479 296.107 36.8314 295.697 35.9199C295.287 34.9857 294.809 34.2679 294.262 33.7666C293.715 33.2653 293.157 33.0146 292.587 33.0146C291.812 33.0146 291.151 33.4362 290.604 34.2793C290.058 35.0996 289.784 36.2617 289.784 37.7656ZM313.488 53.6592C313.899 53.6592 314.366 53.3971 314.89 52.873C315.437 52.3262 316.018 51.5856 316.633 50.6514C317.248 49.7171 317.898 48.6234 318.581 47.3701C319.265 46.1169 319.971 44.7611 320.7 43.3027L321.042 42.585L322.444 43.6445L322.102 44.3623C320.894 46.7777 319.812 48.8512 318.855 50.583C317.92 52.292 317.043 53.7048 316.223 54.8213C315.403 55.915 314.616 56.724 313.864 57.248C313.135 57.7493 312.383 58 311.609 58C310.583 58 309.695 57.6696 308.943 57.0088C308.213 56.3252 307.598 55.1973 307.097 53.625C306.618 52.0299 306.265 49.9336 306.037 47.3359C305.787 44.7383 305.661 41.5254 305.661 37.6973C305.661 32.2741 305.889 27.6257 306.345 23.752C306.801 19.8555 307.416 16.6654 308.191 14.1816C308.988 11.6751 309.9 9.84082 310.925 8.67871C311.973 7.49382 313.067 6.90137 314.206 6.90137C314.89 6.90137 315.459 7.1862 315.915 7.75586C316.394 8.30273 316.633 9.30534 316.633 10.7637C316.633 11.903 316.542 13.2018 316.36 14.6602C316.177 16.1185 315.938 17.6794 315.642 19.3428C315.346 21.0062 314.992 22.738 314.582 24.5381C314.172 26.3154 313.739 28.0928 313.283 29.8701C312.828 31.6247 312.361 33.3564 311.882 35.0654C311.404 36.7516 310.936 38.3353 310.481 39.8164C310.617 42.6191 310.765 44.9206 310.925 46.7207C311.107 48.498 311.312 49.8994 311.54 50.9248C311.791 51.9502 312.076 52.668 312.395 53.0781C312.714 53.4655 313.078 53.6592 313.488 53.6592ZM314.411 11.584C314.411 11.1055 314.354 10.7295 314.24 10.4561C314.126 10.1826 313.944 10.0459 313.694 10.0459C313.443 10.0459 313.192 10.3991 312.942 11.1055C312.691 11.8118 312.44 12.7689 312.19 13.9766C311.962 15.1842 311.745 16.5856 311.54 18.1807C311.358 19.7757 311.187 21.4733 311.028 23.2734C310.868 25.0508 310.743 26.8737 310.652 28.7422C310.56 30.6107 310.503 32.4108 310.481 34.1426C311.028 32.1374 311.529 30.0866 311.985 27.9902C312.463 25.8711 312.885 23.8203 313.249 21.8379C313.614 19.8555 313.899 17.987 314.104 16.2324C314.309 14.4551 314.411 12.9056 314.411 11.584ZM341.055 49.5234C341.055 50.8223 341.169 51.916 341.397 52.8047C341.625 53.6934 342.024 54.1377 342.593 54.1377C342.935 54.1377 343.3 53.9782 343.687 53.6592C344.097 53.3174 344.564 52.7705 345.088 52.0186C345.612 51.2666 346.205 50.2982 346.866 49.1133C347.549 47.9056 348.324 46.4359 349.19 44.7041L350.215 42.585L351.617 43.6445L350.591 45.7637C349.634 47.6777 348.734 49.3981 347.891 50.9248C347.071 52.4287 346.285 53.7048 345.533 54.7529C344.781 55.8011 344.04 56.61 343.311 57.1797C342.605 57.7266 341.898 58 341.192 58C340.44 58 339.802 57.7949 339.278 57.3848C338.776 56.9746 338.355 56.4163 338.013 55.71C337.671 54.9808 337.409 54.1491 337.227 53.2148C337.045 52.2578 336.919 51.2438 336.851 50.1729C336.304 51.2666 335.7 52.292 335.039 53.249C334.379 54.1833 333.684 55.0036 332.954 55.71C332.248 56.4163 331.508 56.9746 330.733 57.3848C329.958 57.7949 329.183 58 328.409 58C327.269 58 326.164 57.7607 325.093 57.2822C324.022 56.8037 323.065 56.0745 322.222 55.0947C321.402 54.1149 320.741 52.8844 320.24 51.4033C319.738 49.8994 319.488 48.1335 319.488 46.1055C319.488 43.7357 319.795 41.571 320.411 39.6113C321.026 37.6289 321.857 35.9313 322.906 34.5186C323.954 33.083 325.162 31.9779 326.529 31.2031C327.896 30.4056 329.331 30.0068 330.835 30.0068C331.747 30.0068 332.59 30.2119 333.365 30.6221C334.139 31.0322 334.812 31.5335 335.381 32.126C335.974 32.6956 336.464 33.3109 336.851 33.9717C337.238 34.6097 337.5 35.1566 337.637 35.6123L338.047 32.2969C338.093 31.8639 338.298 31.4993 338.663 31.2031C339.05 30.9069 339.471 30.679 339.927 30.5195C340.383 30.3372 340.827 30.2119 341.26 30.1436C341.693 30.0524 342.001 30.0068 342.183 30.0068C342.456 30.0068 342.639 30.0524 342.73 30.1436C342.821 30.2347 342.867 30.417 342.867 30.6904C342.867 31.0322 342.764 31.7272 342.559 32.7754C342.377 33.8008 342.172 35.1224 341.944 36.7402C341.739 38.3353 341.534 40.2152 341.329 42.3799C341.146 44.5446 341.055 46.9258 341.055 49.5234ZM337.295 40.5C337.295 39.4518 337.136 38.4264 336.817 37.4238C336.498 36.3984 336.065 35.4984 335.518 34.7236C334.971 33.9261 334.333 33.2881 333.604 32.8096C332.898 32.3311 332.146 32.0918 331.348 32.0918C330.368 32.0918 329.445 32.3766 328.579 32.9463C327.736 33.4932 326.996 34.2793 326.358 35.3047C325.743 36.3073 325.253 37.5264 324.888 38.9619C324.524 40.3747 324.341 41.9355 324.341 43.6445C324.341 47.0625 324.877 49.6715 325.948 51.4717C327.019 53.249 328.443 54.1377 330.22 54.1377C330.995 54.1377 331.792 53.8301 332.613 53.2148C333.456 52.5768 334.219 51.6768 334.903 50.5146C335.609 49.3298 336.179 47.8942 336.612 46.208C337.067 44.5218 337.295 42.6191 337.295 40.5Z" fill="black"/>
</svg>
