<svg width="171" height="80" viewBox="0 0 171 80" fill="none" xmlns="http://www.w3.org/2000/svg">
<path d="M94.9634 3.41345L90.3729 2.58487L87.7569 2.2437L85.1901 2.09748L83.117 2L81.2907 2.43866L79.6618 3.80336L78.872 5.89916V6.28908M69.0494 25.6874V7.41008L69.0987 7.21513L69.2962 7.02017L69.4936 6.82521L69.691 6.63025L69.9872 6.48403L70.3327 6.38655L70.6289 6.28908H78.872M69.0494 25.6874L69 29.4403L69.2962 30.1714L69.7404 30.7076L70.0859 30.9513L70.2834 31H71.468L73.245 30.9513L75.3675 30.6588L78.0823 30.074L80.7477 29.0992L83.2651 27.9294L86.128 25.9798L88.4479 24.1277L91.0146 21.2034L93.7294 16.9143L95.3583 11.9916L96 7.45882V5.89916M69.0494 25.6874L70.234 26.2235L70.6289 26.321L71.1718 26.3697H72.1097H72.4058L72.9488 26.2723L73.6152 25.9798L74.9232 25.5412L77.0457 23.9328L78.2797 21.5445L78.872 18.4739L79.0695 14.5748L78.872 8.57983V6.28908" stroke="black" stroke-width="2"/>
<path d="M49.3523 77V66.8182H52.7876C53.4505 66.8182 54.0024 66.9342 54.4432 67.1662C54.8873 67.3982 55.2204 67.7147 55.4425 68.1158C55.6645 68.5168 55.7756 68.9725 55.7756 69.483C55.7756 69.9072 55.7043 70.2701 55.5618 70.5717C55.4193 70.8733 55.2254 71.117 54.9801 71.3026C54.7348 71.4882 54.4614 71.6224 54.1598 71.7053V71.7848C54.4879 71.808 54.8061 71.924 55.1143 72.1328C55.4226 72.3383 55.6761 72.6267 55.875 72.9979C56.0739 73.3691 56.1733 73.8132 56.1733 74.3303C56.1733 74.844 56.0589 75.303 55.8303 75.7074C55.6016 76.1084 55.2502 76.425 54.7763 76.657C54.3056 76.8857 53.7057 77 52.9766 77H49.3523ZM50.282 76.1648H52.9766C53.7621 76.1648 54.3421 75.9908 54.7166 75.6428C55.0945 75.2947 55.2834 74.8572 55.2834 74.3303C55.2834 73.9425 55.1889 73.5911 55 73.2763C54.8144 72.9581 54.5509 72.7062 54.2095 72.5206C53.8714 72.335 53.4737 72.2422 53.0163 72.2422H50.282V76.1648ZM50.282 71.4169H52.8722C53.2732 71.4169 53.6245 71.334 53.9261 71.1683C54.2277 71.0026 54.4631 70.7739 54.6321 70.4822C54.8011 70.1906 54.8857 69.8575 54.8857 69.483C54.8857 68.9427 54.71 68.5036 54.3587 68.1655C54.0073 67.8241 53.4837 67.6534 52.7876 67.6534H50.282V71.4169ZM62.3542 77V66.8182H68.2605V67.6534H63.2839V71.4865H67.9473V72.3217H63.2839V76.1648H68.3599V77H62.3542ZM74.6191 77H73.6447L77.3485 66.8182H78.3429L82.0467 77H81.0723L77.8805 68.0263H77.8109L74.6191 77ZM75.3201 73.0973H80.3713V73.9325H75.3201V73.0973ZM94.5154 66.8182H95.4451V73.5597C95.4451 74.2524 95.2827 74.8722 94.9579 75.419C94.6331 75.9626 94.1807 76.3918 93.6007 76.7067C93.024 77.0182 92.3528 77.174 91.5872 77.174C90.8249 77.174 90.1537 77.0166 89.5737 76.7017C88.9937 76.3868 88.5413 75.9576 88.2164 75.4141C87.8916 74.8705 87.7292 74.2524 87.7292 73.5597V66.8182H88.6589V73.495C88.6589 74.0353 88.7799 74.5175 89.0218 74.9418C89.2638 75.3627 89.6035 75.6941 90.041 75.9361C90.4818 76.178 90.9972 76.299 91.5872 76.299C92.1771 76.299 92.6925 76.178 93.1333 75.9361C93.5742 75.6941 93.9139 75.3627 94.1525 74.9418C94.3945 74.5175 94.5154 74.0353 94.5154 73.495V66.8182ZM101.468 67.6534V66.8182H108.851V67.6534H105.624V77H104.695V67.6534H101.468ZM113.927 66.8182H115.001L118.019 71.6506H118.108L121.126 66.8182H122.2L118.526 72.5902V77H117.601V72.5902L113.927 66.8182Z" fill="black"/>
<path d="M2.16 55V39.112H6.696C8.584 39.112 10.288 39.512 11.808 40.312C12.624 40.728 13.336 41.248 13.944 41.872C14.552 42.496 15.04 43.296 15.408 44.272C15.776 45.232 15.96 46.304 15.96 47.488C15.96 49.184 15.536 50.616 14.688 51.784C13.136 53.928 10.624 55 7.152 55H2.16ZM6.672 54.184C8.704 54.184 10.336 53.584 11.568 52.384C12.8 51.184 13.416 49.424 13.416 47.104C13.416 45.312 12.928 43.784 11.952 42.52C10.976 41.24 9.712 40.392 8.16 39.976C6.768 39.976 5.552 40.144 4.512 40.48V53.968C5.024 54.112 5.744 54.184 6.672 54.184ZM17.2322 55L24.3602 38.728H24.7202L31.8482 55H29.2322L27.4322 50.68H20.3042L18.5282 55H17.2322ZM20.6642 49.768H27.0482L23.8802 41.992L20.6642 49.768ZM39.0054 55H36.6774V49.096L31.2534 39.112H33.8694L38.3094 48.232L42.4614 39.112H43.6614L39.0054 48.976V55ZM48.0208 41.872C48.0208 42.576 48.2928 43.232 48.8368 43.84C49.3968 44.432 50.0688 44.96 50.8528 45.424C51.6528 45.872 52.4448 46.336 53.2288 46.816C54.0128 47.28 54.6768 47.856 55.2208 48.544C55.7808 49.232 56.0608 49.992 56.0608 50.824C56.0608 52.136 55.5728 53.208 54.5968 54.04C53.6368 54.872 52.3328 55.288 50.6848 55.288C49.0368 55.288 47.4048 54.976 45.7888 54.352V53.224C47.4208 54.04 48.8048 54.448 49.9408 54.448C51.0928 54.448 51.9888 54.168 52.6288 53.608C53.2688 53.048 53.5888 52.272 53.5888 51.28C53.5888 50.608 53.3248 50 52.7968 49.456C52.2688 48.896 51.6288 48.416 50.8768 48.016C50.1248 47.6 49.3728 47.176 48.6208 46.744C47.8688 46.312 47.2288 45.768 46.7008 45.112C46.1728 44.44 45.9088 43.632 45.9088 42.688C45.9088 41.744 46.3248 40.864 47.1568 40.048C48.0048 39.232 49.2608 38.824 50.9248 38.824C52.0128 38.824 53.3888 39.072 55.0528 39.568L54.8128 41.2C52.6528 40.272 50.8048 39.808 49.2688 39.808C48.4368 40.208 48.0208 40.896 48.0208 41.872ZM59.6288 55V39.112H69.2528L69.0128 40.72L64.5488 39.976C63.7648 39.976 62.9008 40.112 61.9568 40.384V46.216H67.2848V47.128H61.9568V54.136L69.3968 53.392L69.1568 55H59.6288ZM80.8333 41.872C80.8333 42.576 81.1053 43.232 81.6493 43.84C82.2093 44.432 82.8813 44.96 83.6653 45.424C84.4653 45.872 85.2573 46.336 86.0413 46.816C86.8253 47.28 87.4893 47.856 88.0333 48.544C88.5933 49.232 88.8733 49.992 88.8733 50.824C88.8733 52.136 88.3853 53.208 87.4093 54.04C86.4493 54.872 85.1453 55.288 83.4973 55.288C81.8493 55.288 80.2173 54.976 78.6013 54.352V53.224C80.2333 54.04 81.6173 54.448 82.7533 54.448C83.9053 54.448 84.8013 54.168 85.4413 53.608C86.0813 53.048 86.4013 52.272 86.4013 51.28C86.4013 50.608 86.1373 50 85.6093 49.456C85.0813 48.896 84.4413 48.416 83.6893 48.016C82.9373 47.6 82.1853 47.176 81.4333 46.744C80.6813 46.312 80.0413 45.768 79.5133 45.112C78.9853 44.44 78.7213 43.632 78.7213 42.688C78.7213 41.744 79.1373 40.864 79.9693 40.048C80.8173 39.232 82.0733 38.824 83.7373 38.824C84.8253 38.824 86.2013 39.072 87.8653 39.568L87.6253 41.2C85.4653 40.272 83.6173 39.808 82.0813 39.808C81.2493 40.208 80.8333 40.896 80.8333 41.872ZM103.121 43.24C103.121 44.776 102.553 45.944 101.417 46.744C100.297 47.528 98.7693 47.92 96.8333 47.92H94.7693V55H92.4413V39.112H97.6013C99.2173 39.112 100.537 39.48 101.561 40.216C102.601 40.952 103.121 41.96 103.121 43.24ZM94.7693 47.224H96.9053C97.6573 47.224 98.2973 47.08 98.8253 46.792C99.3693 46.504 99.7613 46.136 100.001 45.688C100.433 44.888 100.649 44.112 100.649 43.36C100.649 42.992 100.553 42.552 100.361 42.04C99.9773 40.984 99.1853 40.296 97.9853 39.976C96.8333 39.976 95.7613 40.112 94.7693 40.384V47.224ZM107.751 39.112V55H105.543V39.112H107.751ZM106.575 37.744H105.615L109.743 33.232L111.087 34.432L106.575 37.744ZM124.154 55.264H123.746L113.234 42.112H113.138V55H112.082V39.112H113.858L123.002 50.656H123.098V39.112H124.154V55.264ZM135.689 38.824C137.769 38.824 139.489 39.512 140.849 40.888C142.209 42.248 142.889 44.144 142.889 46.576C142.889 48.144 142.617 49.52 142.073 50.704C141.529 51.872 140.817 52.776 139.937 53.416C138.225 54.664 136.337 55.288 134.273 55.288C132.209 55.288 130.497 54.6 129.137 53.224C127.793 51.832 127.121 49.92 127.121 47.488C127.121 46.224 127.297 45.088 127.649 44.08C128.017 43.056 128.489 42.224 129.065 41.584C129.657 40.944 130.337 40.408 131.105 39.976C132.513 39.208 134.041 38.824 135.689 38.824ZM130.865 52.264C131.281 52.968 131.841 53.52 132.545 53.92C133.249 54.304 134.057 54.496 134.969 54.496C135.897 54.496 136.721 54.264 137.441 53.8C138.161 53.336 138.721 52.728 139.121 51.976C139.937 50.472 140.345 48.856 140.345 47.128C140.345 45 139.921 43.288 139.073 41.992C138.129 40.536 136.569 39.808 134.393 39.808C132.841 40.352 131.665 41.288 130.865 42.616C130.065 43.944 129.665 45.448 129.665 47.128C129.665 49.176 130.065 50.888 130.865 52.264ZM145.855 55V39.112H148.207V53.704C149.183 53.992 149.967 54.136 150.559 54.136L154.903 53.392L154.615 55H145.855ZM155.631 55L162.759 38.728H163.119L170.247 55H167.631L165.831 50.68H158.703L156.927 55H155.631ZM159.063 49.768H165.447L162.279 41.992L159.063 49.768Z" fill="black"/>
</svg>
