<svg width="143" height="64" viewBox="0 0 143 64" fill="none" xmlns="http://www.w3.org/2000/svg">
<path d="M80.2322 3.07227L76.8318 2.4437L74.894 2.18487L72.9927 2.07395L71.457 2L70.1042 2.33277L68.8976 3.36807L68.3126 4.95798V5.25378M61.0366 19.9697V6.1042L61.0731 5.9563L61.2194 5.8084L61.3656 5.6605L61.5119 5.51261L61.7313 5.40168L61.9872 5.32773L62.2066 5.25378H68.3126M61.0366 19.9697L61 22.8168L61.2194 23.3714L61.5484 23.7782L61.8044 23.963L61.9506 24H62.8282L64.1444 23.963L65.7166 23.7412L67.7276 23.2975L69.702 22.558L71.5667 21.6706L73.6874 20.1916L75.4059 18.7866L77.3071 16.5681L79.3181 13.3143L80.5247 9.57983L81 6.14118V4.95798M61.0366 19.9697L61.9141 20.3765L62.2066 20.4504L62.6088 20.4874H63.3035H63.5229L63.925 20.4134L64.4186 20.1916L65.3876 19.8588L66.9598 18.6387L67.8739 16.8269L68.3126 14.4975L68.4589 11.5395L68.3126 6.9916V5.25378" stroke="black" stroke-width="2"/>
<path d="M40.1591 61V52.2727H43.1037C43.6719 52.2727 44.1449 52.3722 44.5227 52.571C44.9034 52.7699 45.1889 53.0412 45.3793 53.3849C45.5696 53.7287 45.6648 54.1193 45.6648 54.5568C45.6648 54.9205 45.6037 55.2315 45.4815 55.4901C45.3594 55.7486 45.1932 55.9574 44.983 56.1165C44.7727 56.2756 44.5384 56.3906 44.2798 56.4616V56.5298C44.5611 56.5497 44.8338 56.6491 45.098 56.8281C45.3622 57.0043 45.5795 57.2514 45.75 57.5696C45.9205 57.8878 46.0057 58.2685 46.0057 58.7116C46.0057 59.152 45.9077 59.5455 45.7116 59.892C45.5156 60.2358 45.2145 60.5071 44.8082 60.706C44.4048 60.902 43.8906 61 43.2656 61H40.1591ZM40.956 60.2841H43.2656C43.9389 60.2841 44.4361 60.1349 44.7571 59.8366C45.081 59.5384 45.2429 59.1634 45.2429 58.7116C45.2429 58.3793 45.1619 58.0781 45 57.8082C44.8409 57.5355 44.6151 57.3196 44.3224 57.1605C44.0327 57.0014 43.6918 56.9219 43.2997 56.9219H40.956V60.2841ZM40.956 56.2145H43.1761C43.5199 56.2145 43.821 56.1435 44.0795 56.0014C44.3381 55.8594 44.5398 55.6634 44.6847 55.4134C44.8295 55.1634 44.902 54.8778 44.902 54.5568C44.902 54.0937 44.7514 53.7173 44.4503 53.4276C44.1491 53.1349 43.7003 52.9886 43.1037 52.9886H40.956V56.2145ZM51.3036 61V52.2727H56.3661V52.9886H52.1005V56.2741H56.0977V56.9901H52.1005V60.2841H56.4513V61H51.3036ZM61.8164 61H60.9812L64.1559 52.2727H65.0082L68.1829 61H67.3477L64.6119 53.3082H64.5522L61.8164 61ZM62.4173 57.6548H66.7468V58.3707H62.4173V57.6548ZM78.8704 52.2727H79.6673V58.0511C79.6673 58.6449 79.5281 59.1761 79.2496 59.6449C78.9712 60.1108 78.5835 60.4787 78.0863 60.7486C77.592 61.0156 77.0167 61.1491 76.3604 61.1491C75.707 61.1491 75.1317 61.0142 74.6346 60.7443C74.1374 60.4744 73.7496 60.1065 73.4712 59.6406C73.1928 59.1747 73.0536 58.6449 73.0536 58.0511V52.2727H73.8505V57.9957C73.8505 58.4588 73.9542 58.8722 74.1616 59.2358C74.369 59.5966 74.6602 59.8807 75.0352 60.0881C75.413 60.2955 75.8548 60.3991 76.3604 60.3991C76.8661 60.3991 77.3079 60.2955 77.6857 60.0881C78.0636 59.8807 78.3548 59.5966 78.5593 59.2358C78.7667 58.8722 78.8704 58.4588 78.8704 57.9957V52.2727ZM84.8299 52.9886V52.2727H91.158V52.9886H88.3924V61H87.5955V52.9886H84.8299ZM95.5089 52.2727H96.4293L99.016 56.4148H99.0927L101.679 52.2727H102.6L99.4506 57.2202V61H98.658V57.2202L95.5089 52.2727Z" fill="black"/>
<path d="M1.8 45V31.76H5.58C7.15333 31.76 8.57333 32.0933 9.84 32.76C10.52 33.1067 11.1133 33.54 11.62 34.06C12.1267 34.58 12.5333 35.2467 12.84 36.06C13.1467 36.86 13.3 37.7533 13.3 38.74C13.3 40.1533 12.9467 41.3467 12.24 42.32C10.9467 44.1067 8.85333 45 5.96 45H1.8ZM5.56 44.32C7.25333 44.32 8.61333 43.82 9.64 42.82C10.6667 41.82 11.18 40.3533 11.18 38.42C11.18 36.9267 10.7733 35.6533 9.96 34.6C9.14667 33.5333 8.09333 32.8267 6.8 32.48C5.64 32.48 4.62667 32.62 3.76 32.9V44.14C4.18667 44.26 4.78667 44.32 5.56 44.32ZM14.3602 45L20.3002 31.44H20.6002L26.5402 45H24.3602L22.8602 41.4H16.9202L15.4402 45H14.3602ZM17.2202 40.64H22.5402L19.9002 34.16L17.2202 40.64ZM32.5045 45H30.5645V40.08L26.0445 31.76H28.2245L31.9245 39.36L35.3845 31.76H36.3845L32.5045 39.98V45ZM40.0173 34.06C40.0173 34.6467 40.244 35.1933 40.6973 35.7C41.164 36.1933 41.724 36.6333 42.3773 37.02C43.044 37.3933 43.704 37.78 44.3573 38.18C45.0107 38.5667 45.564 39.0467 46.0173 39.62C46.484 40.1933 46.7173 40.8267 46.7173 41.52C46.7173 42.6133 46.3107 43.5067 45.4973 44.2C44.6973 44.8933 43.6107 45.24 42.2373 45.24C40.864 45.24 39.504 44.98 38.1573 44.46V43.52C39.5173 44.2 40.6707 44.54 41.6173 44.54C42.5773 44.54 43.324 44.3067 43.8573 43.84C44.3907 43.3733 44.6573 42.7267 44.6573 41.9C44.6573 41.34 44.4373 40.8333 43.9973 40.38C43.5573 39.9133 43.024 39.5133 42.3973 39.18C41.7707 38.8333 41.144 38.48 40.5173 38.12C39.8907 37.76 39.3573 37.3067 38.9173 36.76C38.4773 36.2 38.2573 35.5267 38.2573 34.74C38.2573 33.9533 38.604 33.22 39.2973 32.54C40.004 31.86 41.0507 31.52 42.4373 31.52C43.344 31.52 44.4907 31.7267 45.8773 32.14L45.6773 33.5C43.8773 32.7267 42.3373 32.34 41.0573 32.34C40.364 32.6733 40.0173 33.2467 40.0173 34.06ZM49.6906 45V31.76H57.7106L57.5106 33.1L53.7906 32.48C53.1373 32.48 52.4173 32.5933 51.6306 32.82V37.68H56.0706V38.44H51.6306V44.28L57.8306 43.66L57.6306 45H49.6906ZM67.3611 34.06C67.3611 34.6467 67.5878 35.1933 68.0411 35.7C68.5078 36.1933 69.0678 36.6333 69.7211 37.02C70.3878 37.3933 71.0478 37.78 71.7011 38.18C72.3544 38.5667 72.9078 39.0467 73.3611 39.62C73.8278 40.1933 74.0611 40.8267 74.0611 41.52C74.0611 42.6133 73.6544 43.5067 72.8411 44.2C72.0411 44.8933 70.9544 45.24 69.5811 45.24C68.2078 45.24 66.8478 44.98 65.5011 44.46V43.52C66.8611 44.2 68.0144 44.54 68.9611 44.54C69.9211 44.54 70.6678 44.3067 71.2011 43.84C71.7344 43.3733 72.0011 42.7267 72.0011 41.9C72.0011 41.34 71.7811 40.8333 71.3411 40.38C70.9011 39.9133 70.3678 39.5133 69.7411 39.18C69.1144 38.8333 68.4878 38.48 67.8611 38.12C67.2344 37.76 66.7011 37.3067 66.2611 36.76C65.8211 36.2 65.6011 35.5267 65.6011 34.74C65.6011 33.9533 65.9478 33.22 66.6411 32.54C67.3478 31.86 68.3944 31.52 69.7811 31.52C70.6878 31.52 71.8344 31.7267 73.2211 32.14L73.0211 33.5C71.2211 32.7267 69.6811 32.34 68.4011 32.34C67.7078 32.6733 67.3611 33.2467 67.3611 34.06ZM85.9344 35.2C85.9344 36.48 85.461 37.4533 84.5144 38.12C83.581 38.7733 82.3077 39.1 80.6944 39.1H78.9744V45H77.0344V31.76H81.3344C82.681 31.76 83.781 32.0667 84.6344 32.68C85.501 33.2933 85.9344 34.1333 85.9344 35.2ZM78.9744 38.52H80.7544C81.381 38.52 81.9144 38.4 82.3544 38.16C82.8077 37.92 83.1344 37.6133 83.3344 37.24C83.6944 36.5733 83.8744 35.9267 83.8744 35.3C83.8744 34.9933 83.7944 34.6267 83.6344 34.2C83.3144 33.32 82.6544 32.7467 81.6544 32.48C80.6944 32.48 79.801 32.5933 78.9744 32.82V38.52ZM89.7923 31.76V45H87.9523V31.76H89.7923ZM88.8123 30.62H88.0123L91.4523 26.86L92.5723 27.86L88.8123 30.62ZM103.462 45.22H103.122L94.3616 34.26H94.2816V45H93.4016V31.76H94.8816L102.502 41.38H102.582V31.76H103.462V45.22ZM113.074 31.52C114.807 31.52 116.241 32.0933 117.374 33.24C118.507 34.3733 119.074 35.9533 119.074 37.98C119.074 39.2867 118.847 40.4333 118.394 41.42C117.941 42.3933 117.347 43.1467 116.614 43.68C115.187 44.72 113.614 45.24 111.894 45.24C110.174 45.24 108.747 44.6667 107.614 43.52C106.494 42.36 105.934 40.7667 105.934 38.74C105.934 37.6867 106.081 36.74 106.374 35.9C106.681 35.0467 107.074 34.3533 107.554 33.82C108.047 33.2867 108.614 32.84 109.254 32.48C110.427 31.84 111.701 31.52 113.074 31.52ZM109.054 42.72C109.401 43.3067 109.867 43.7667 110.454 44.1C111.041 44.42 111.714 44.58 112.474 44.58C113.247 44.58 113.934 44.3867 114.534 44C115.134 43.6133 115.601 43.1067 115.934 42.48C116.614 41.2267 116.954 39.88 116.954 38.44C116.954 36.6667 116.601 35.24 115.894 34.16C115.107 32.9467 113.807 32.34 111.994 32.34C110.701 32.7933 109.721 33.5733 109.054 34.68C108.387 35.7867 108.054 37.04 108.054 38.44C108.054 40.1467 108.387 41.5733 109.054 42.72ZM121.546 45V31.76H123.506V43.92C124.319 44.16 124.973 44.28 125.466 44.28L129.086 43.66L128.846 45H121.546ZM129.692 45L135.632 31.44H135.932L141.872 45H139.692L138.192 41.4H132.252L130.772 45H129.692ZM132.552 40.64H137.872L135.232 34.16L132.552 40.64Z" fill="black"/>
</svg>
