<svg width="512" height="512" viewBox="0 0 512 512" fill="none" xmlns="http://www.w3.org/2000/svg">
<g clip-path="url(#clip0_602_202)">
<rect x="22" y="17" width="468" height="497" rx="234" fill="white"/>
<path d="M256 2C397.385 2 512 116.615 512 258C512 385.777 418.384 491.685 296 510.89V332H355.65L367 258H296V209.979C296 189.734 305.917 170 337.719 170H370V107C370 107 340.703 102 312.695 102C254.219 102 216 137.44 216 201.6V258H151V332H216V510.89C93.6155 491.685 0 385.777 0 258C0 116.615 114.615 2 256 2Z" fill="#1877F2"/>
</g>
<defs>
<clipPath id="clip0_602_202">
<rect width="512" height="512" fill="white"/>
</clipPath>
</defs>
</svg>
