<svg width="30" height="30" viewBox="0 0 30 30" fill="none" xmlns="http://www.w3.org/2000/svg">
<path d="M22 1.89526H8C4.13401 1.89526 1 4.91981 1 8.65078V22.1618C1 25.8928 4.13401 28.9173 8 28.9173H22C25.866 28.9173 29 25.8928 29 22.1618V8.65078C29 4.91981 25.866 1.89526 22 1.89526Z" stroke="white" stroke-width="2" stroke-linecap="round" stroke-linejoin="round"/>
<path d="M20.6 14.555C20.7728 15.6795 20.5738 16.8279 20.0313 17.8369C19.4888 18.8459 18.6304 19.6641 17.5783 20.1752C16.5262 20.6863 15.3338 20.8641 14.1709 20.6836C13.008 20.503 11.9337 19.9731 11.1008 19.1693C10.2679 18.3655 9.71883 17.3287 9.5317 16.2064C9.34457 15.0841 9.5289 13.9334 10.0585 12.918C10.588 11.9026 11.4359 11.0742 12.4814 10.5507C13.5269 10.0271 14.7169 9.83508 15.882 10.0018C17.0705 10.1719 18.1708 10.7064 19.0204 11.5263C19.87 12.3462 20.4238 13.4081 20.6 14.555Z" stroke="white" stroke-width="2" stroke-linecap="round" stroke-linejoin="round"/>
<path d="M22.7 7.97412H22.7147" stroke="white" stroke-width="2" stroke-linecap="round" stroke-linejoin="round"/>
</svg>
