<svg width="35" height="25" viewBox="0 0 35 25" fill="none" xmlns="http://www.w3.org/2000/svg">
<path d="M32.5821 5.2494C32.4079 4.57787 32.0532 3.96259 31.5538 3.46571C31.0544 2.96882 30.4279 2.60793 29.7377 2.41948C27.2159 1.8252 17.1287 1.8252 17.1287 1.8252C17.1287 1.8252 7.04145 1.8252 4.51964 2.47608C3.82944 2.66453 3.20299 3.02542 2.70357 3.52231C2.20414 4.01919 1.84944 4.63447 1.67528 5.30599C1.21375 7.77588 0.987989 10.2814 1.00084 12.7911C0.984387 15.3197 1.21016 17.8444 1.67528 20.3329C1.86728 20.9835 2.22994 21.5754 2.72819 22.0513C3.22645 22.5272 3.84347 22.871 4.51964 23.0496C7.04145 23.7005 17.1287 23.7005 17.1287 23.7005C17.1287 23.7005 27.2159 23.7005 29.7377 23.0496C30.4279 22.8611 31.0544 22.5002 31.5538 22.0034C32.0532 21.5065 32.4079 20.8912 32.5821 20.2197C33.04 17.7684 33.2658 15.2819 33.2565 12.7911C33.273 10.2625 33.0472 7.73788 32.5821 5.2494V5.2494Z" stroke="white" stroke-width="2" stroke-linecap="round" stroke-linejoin="round"/>
<path d="M13.8296 17.4189L22.2601 12.792L13.8296 8.16504V17.4189Z" stroke="white" stroke-width="2" stroke-linecap="round" stroke-linejoin="round"/>
</svg>
