<svg width="28" height="18" viewBox="0 0 28 18" fill="none" xmlns="http://www.w3.org/2000/svg">
<path d="M8.44922 0.603516C9.73828 0.603516 10.9036 0.811849 11.9453 1.22852C12.9935 1.63867 13.8887 2.21159 14.6309 2.94727C15.373 3.68294 15.946 4.55859 16.3496 5.57422C16.7533 6.58984 16.9551 7.69987 16.9551 8.9043C16.9551 9.67904 16.8802 10.4277 16.7305 11.1504C16.5807 11.873 16.3659 12.5534 16.0859 13.1914C15.806 13.8294 15.4609 14.4121 15.0508 14.9395C14.6471 15.4668 14.1882 15.9225 13.6738 16.3066C13.166 16.6842 12.6061 16.9772 11.9941 17.1855C11.3887 17.3939 10.7409 17.498 10.0508 17.498C9.34766 17.498 8.63802 17.4329 7.92188 17.3027C7.20573 17.1725 6.49609 17.0326 5.79297 16.8828C5.55208 17.0195 5.30469 17.1367 5.05078 17.2344C4.79688 17.3385 4.54297 17.4232 4.28906 17.4883C4.03516 17.5599 3.78451 17.612 3.53711 17.6445C3.29622 17.6836 3.06836 17.7031 2.85352 17.7031C2.20247 17.7031 1.70768 17.6283 1.36914 17.4785C1.02409 17.3288 0.851562 17.1042 0.851562 16.8047C0.851562 16.6289 0.900391 16.4727 0.998047 16.3359C1.08919 16.1992 1.24544 16.0853 1.4668 15.9941C1.68815 15.8965 1.97786 15.8249 2.33594 15.7793C2.6875 15.7272 3.12695 15.7012 3.6543 15.7012C4.06445 15.7012 4.4681 15.724 4.86523 15.7695C5.26237 15.8086 5.65625 15.8574 6.04688 15.916L6.31055 15.6426C6.44727 15.4798 6.55143 15.2747 6.62305 15.0273C6.69466 14.7734 6.74674 14.4479 6.7793 14.0508C6.81185 13.6536 6.83138 13.1686 6.83789 12.5957C6.8444 12.0163 6.84766 11.3164 6.84766 10.4961C6.84766 9.70182 6.85091 9.02474 6.85742 8.46484C6.87044 7.89844 6.89648 7.41341 6.93555 7.00977C6.97461 6.60612 7.0332 6.26432 7.11133 5.98438C7.18945 5.69792 7.29362 5.4375 7.42383 5.20312C7.56055 4.96224 7.72982 4.72786 7.93164 4.5C8.13346 4.26562 8.37435 3.9987 8.6543 3.69922L9.15234 4.13867C9.00911 4.27539 8.89518 4.44466 8.81055 4.64648C8.73242 4.8418 8.67383 5.07617 8.63477 5.34961C8.5957 5.61654 8.56966 5.92253 8.55664 6.26758C8.55013 6.60612 8.54688 6.99023 8.54688 7.41992V12.918C8.54688 13.3411 8.5013 13.7122 8.41016 14.0312C8.31901 14.3438 8.19531 14.6237 8.03906 14.8711C7.88932 15.1185 7.7168 15.3398 7.52148 15.5352C7.32617 15.7305 7.12435 15.9128 6.91602 16.082C7.30013 16.1602 7.67448 16.2383 8.03906 16.3164C8.40365 16.3945 8.75521 16.4661 9.09375 16.5312C9.4388 16.5964 9.76758 16.6517 10.0801 16.6973C10.3991 16.7363 10.7018 16.7559 10.9883 16.7559C11.5221 16.7559 11.9974 16.6387 12.4141 16.4043C12.8307 16.1699 13.1921 15.8509 13.498 15.4473C13.804 15.0371 14.0612 14.5586 14.2695 14.0117C14.4844 13.4583 14.6569 12.8659 14.7871 12.2344C14.9173 11.6029 15.0085 10.9421 15.0605 10.252C15.1191 9.56185 15.1484 8.87826 15.1484 8.20117C15.1484 7.12695 15.0117 6.16341 14.7383 5.31055C14.4648 4.45768 14.0579 3.73503 13.5176 3.14258C12.9837 2.54362 12.3164 2.08789 11.5156 1.77539C10.7214 1.45638 9.80013 1.29688 8.75195 1.29688C7.99674 1.29688 7.33919 1.35872 6.7793 1.48242C6.2194 1.59961 5.73763 1.75911 5.33398 1.96094C4.93685 2.15625 4.61133 2.38086 4.35742 2.63477C4.10352 2.88867 3.90169 3.15234 3.75195 3.42578C3.60872 3.69271 3.50781 3.95964 3.44922 4.22656C3.39714 4.49349 3.37109 4.73763 3.37109 4.95898C3.37109 5.2194 3.39062 5.47656 3.42969 5.73047C3.47526 5.97786 3.5599 6.19922 3.68359 6.39453C3.8138 6.58984 3.99609 6.74609 4.23047 6.86328C4.46484 6.98047 4.77734 7.03906 5.16797 7.03906C5.29818 7.03906 5.4056 7.03255 5.49023 7.01953C5.57487 7 5.64648 6.97721 5.70508 6.95117C5.77018 6.92513 5.82552 6.89583 5.87109 6.86328L5.98828 7.43945C5.89062 7.51107 5.72461 7.57292 5.49023 7.625C5.26237 7.67708 5.01497 7.70312 4.74805 7.70312C4.35742 7.70312 3.99284 7.63477 3.6543 7.49805C3.32227 7.36133 3.03255 7.17578 2.78516 6.94141C2.53776 6.70052 2.3457 6.42383 2.20898 6.11133C2.06576 5.79883 1.99414 5.4668 1.99414 5.11523C1.99414 4.50977 2.15365 3.93685 2.47266 3.39648C2.79167 2.84961 3.23763 2.37109 3.81055 1.96094C4.38346 1.54427 5.0638 1.21549 5.85156 0.974609C6.64583 0.727214 7.51172 0.603516 8.44922 0.603516ZM2.45312 16.4043C2.34896 16.4043 2.23828 16.4076 2.12109 16.4141C2.00391 16.4206 1.89648 16.4368 1.79883 16.4629C1.69466 16.4889 1.61003 16.528 1.54492 16.5801C1.47982 16.6322 1.44727 16.707 1.44727 16.8047C1.44727 16.9349 1.55469 17.0326 1.76953 17.0977C1.98438 17.1628 2.3457 17.1953 2.85352 17.1953C3.24414 17.1953 3.61523 17.153 3.9668 17.0684C4.32487 16.9837 4.66016 16.86 4.97266 16.6973C4.54297 16.6191 4.11654 16.5508 3.69336 16.4922C3.27018 16.4336 2.85677 16.4043 2.45312 16.4043ZM25.3781 5.91602C25.5279 5.80534 25.6613 5.67188 25.7785 5.51562C25.9022 5.35938 26.0064 5.1901 26.091 5.00781C26.1757 4.82552 26.2408 4.63346 26.2863 4.43164C26.3319 4.22982 26.3547 4.02474 26.3547 3.81641C26.3547 3.50391 26.2993 3.19466 26.1887 2.88867C26.0845 2.57617 25.912 2.29622 25.6711 2.04883C25.4367 1.79492 25.1307 1.58984 24.7531 1.43359C24.3755 1.27734 23.9165 1.19922 23.3762 1.19922C22.7772 1.19922 22.2108 1.29688 21.677 1.49219C21.1431 1.6875 20.6743 1.95117 20.2707 2.2832C19.8736 2.61523 19.5578 2.99935 19.3234 3.43555C19.0891 3.87174 18.9719 4.32747 18.9719 4.80273C18.9719 5.30404 19.0891 5.75 19.3234 6.14062C19.5643 6.52474 19.8768 6.8763 20.2609 7.19531C20.6516 7.50781 21.0943 7.79753 21.5891 8.06445C22.0839 8.33138 22.5884 8.59505 23.1027 8.85547C23.6171 9.11589 24.1216 9.38932 24.6164 9.67578C25.1112 9.95573 25.5507 10.2715 25.9348 10.623C26.3254 10.9746 26.6379 11.3685 26.8723 11.8047C27.1132 12.2409 27.2336 12.7454 27.2336 13.3184C27.2336 13.8652 27.1034 14.3893 26.843 14.8906C26.5826 15.3919 26.2245 15.8379 25.7688 16.2285C25.313 16.6126 24.7759 16.9186 24.1574 17.1465C23.5454 17.3809 22.8846 17.498 22.175 17.498C21.3807 17.498 20.7232 17.4102 20.2023 17.2344C19.688 17.0651 19.2779 16.8503 18.9719 16.5898C18.6724 16.3294 18.4641 16.0495 18.3469 15.75C18.2297 15.444 18.1711 15.1608 18.1711 14.9004C18.1711 14.5814 18.2199 14.2949 18.3176 14.041C18.4217 13.7806 18.5585 13.5495 18.7277 13.3477C18.897 13.1393 19.0858 12.9603 19.2941 12.8105C19.509 12.6543 19.7271 12.5241 19.9484 12.4199C20.1763 12.3092 20.3944 12.2214 20.6027 12.1562C20.8176 12.0846 21.0096 12.0326 21.1789 12L21.2766 12.498C21.1984 12.5241 21.0552 12.5892 20.8469 12.6934C20.6451 12.791 20.4335 12.9375 20.2121 13.1328C19.9908 13.3216 19.7954 13.5592 19.6262 13.8457C19.4569 14.1322 19.3723 14.4707 19.3723 14.8613C19.3723 15.1283 19.4276 15.3887 19.5383 15.6426C19.6555 15.8965 19.828 16.1243 20.0559 16.3262C20.2837 16.528 20.5637 16.6908 20.8957 16.8145C21.2277 16.9382 21.6151 17 22.0578 17C22.5917 17 23.0572 16.9512 23.4543 16.8535C23.8579 16.7493 24.203 16.6159 24.4895 16.4531C24.7824 16.2904 25.0201 16.1048 25.2023 15.8965C25.3911 15.6816 25.5376 15.4603 25.6418 15.2324C25.7525 15.0046 25.8273 14.7799 25.8664 14.5586C25.912 14.3307 25.9348 14.1257 25.9348 13.9434C25.9348 13.4486 25.8208 13.0156 25.593 12.6445C25.3651 12.2669 25.0624 11.9316 24.6848 11.6387C24.3137 11.3392 23.8905 11.069 23.4152 10.8281C22.94 10.5807 22.4517 10.3366 21.9504 10.0957C21.4556 9.85482 20.9706 9.60417 20.4953 9.34375C20.0201 9.08333 19.5936 8.78711 19.216 8.45508C18.8449 8.12305 18.5454 7.74544 18.3176 7.32227C18.0897 6.89258 17.9758 6.39128 17.9758 5.81836C17.9758 5.05013 18.1353 4.34701 18.4543 3.70898C18.7733 3.06445 19.203 2.51432 19.7434 2.05859C20.2837 1.59635 20.9087 1.23828 21.6184 0.984375C22.3345 0.730469 23.0865 0.603516 23.8742 0.603516C24.5448 0.603516 25.1177 0.681641 25.593 0.837891C26.0682 0.994141 26.4556 1.19922 26.7551 1.45312C27.0611 1.70703 27.2824 1.99674 27.4191 2.32227C27.5624 2.64779 27.634 2.97982 27.634 3.31836C27.634 3.72201 27.5624 4.08984 27.4191 4.42188C27.2824 4.75391 27.1132 5.05013 26.9113 5.31055C26.716 5.56445 26.5044 5.7793 26.2766 5.95508C26.0487 6.12435 25.8469 6.24479 25.6711 6.31641L25.3781 5.91602Z" fill="black"/>
</svg>
